<svg xmlns="http://www.w3.org/2000/svg" width="1420" height="216" fill="#161616"><path d="M217 63c0-6 7.667-9.167 11.5-10 16 0 16 0 16 10s4.5 22 4.5 40.5c0 14.8-.667 30.167-1 36 0 32.5 23.5 28.5 32.5 28.5s10 5 10 7.5c0 3.5-2 5.5-10 5.5-10 0-35-11-44.5-11-7.6 0-11.5 2-12.5 3V95.5c0-14.5-6.5-25-6.5-32.5"/><path d="M220.5 199.5c-10.167-10.845-8.667-42.5-7.5-60-12-.5-24-8-45-23.5s-35.5-22.5-46.5-22.5-9.5 2.5-39 2.5c-30.4 0-36 8.5-39 11.5H63c23 0 78.735 25.368 80 26 3 1.5 6 5 5.5 7.5-1.5 1.5-6-.224-7.5-1-19.333-10-62.5-29-88.5-29s-36.5 10-38 15c3.833-2.667 18.2-8 41-8 28.5 0 73 21.5 78 24.5s5.25 6 4.5 7-4.141.319-7-1c-6.5-3-50.7-26-83.5-26s-46.333 15.667-47 23c3-3.5 11.5-10.5 57-10.5 8.833.833 29.3 3.7 40.5 8.5S176 181 205.5 201c7.167 4.5 24.6 14.5 37 14.5 15.5 0 24-1.5 23.5-7-.4-4.4-4.5-5.5-6.5-5.5-8.667 1-31.5 4.5-39-3.5M288 162v-24.5c-10 0-10 2-10 11.5 0 12.5.5 13 10 13M270 148c0-5.2 1.5-8.5 1.5-10.5-2.5-.667-8.4 3.1-8 11.5s5.833 12.167 8.5 12.5c-1-2.5-2-9.3-2-13.5"/><path d="M253.5 189c0-3.5 2.667-4.333 4-4.5 3 0 4.5.1 4.5 4.5 0 5.5-1.5 6-4.5 6s-4-1-4-6M232 194.5V180c-3.5 0-7 1-7 7.5 0 5.5 2.5 7 7 7M242.5 180c-1.6 0-2.667 2-3 3s-.333 10 0 11 1.4 3 3 3 3-1.5 3.5-3.5.5-9 0-11-1.9-2.5-3.5-2.5M1203 63c0-6-7.67-9.167-11.5-10-16 0-16 0-16 10s-4.5 22-4.5 40.5c0 14.8.67 30.167 1 36 0 32.5-23.5 28.5-32.5 28.5s-10 5-10 7.5c0 3.5 2 5.5 10 5.5 10 0 35-11 44.5-11 7.6 0 11.5 2 12.5 3V95.5c0-14.5 6.5-25 6.5-32.5"/><path d="M1199.5 199.5c10.17-10.845 8.67-42.5 7.5-60 12-.5 24-8 45-23.5s35.5-22.5 46.5-22.5 9.5 2.5 39 2.5c30.4 0 36 8.5 39 11.5H1357c-23 0-78.74 25.368-80 26-3 1.5-6 5-5.5 7.5 1.5 1.5 6-.224 7.5-1 19.33-10 62.5-29 88.5-29s36.5 10 38 15c-3.83-2.667-18.2-8-41-8-28.5 0-73 21.5-78 24.5s-5.25 6-4.5 7 4.14.319 7-1c6.5-3 50.7-26 83.5-26s46.33 15.667 47 23c-3-3.5-11.5-10.5-57-10.5-8.83.833-29.3 3.7-40.5 8.5s-78 37.5-107.5 57.5c-7.17 4.5-24.6 14.5-37 14.5-15.5 0-24-1.5-23.5-7 .4-4.4 4.5-5.5 6.5-5.5 8.67 1 31.5 4.5 39-3.5M1132 162v-24.5c10 0 10 2 10 11.5 0 12.5-.5 13-10 13M1150 148c0-5.2-1.5-8.5-1.5-10.5 2.5-.667 8.4 3.1 8 11.5s-5.83 12.167-8.5 12.5c1-2.5 2-9.3 2-13.5"/><path d="M1166.5 189c0-3.5-2.67-4.333-4-4.5-3 0-4.5.1-4.5 4.5 0 5.5 1.5 6 4.5 6s4-1 4-6M1188 194.5V180c3.5 0 7 1 7 7.5 0 5.5-2.5 7-7 7M1177.5 180c1.6 0 2.67 2 3 3s.33 10 0 11-1.4 3-3 3-3-1.5-3.5-3.5-.5-9 0-11 1.9-2.5 3.5-2.5M264.5 0c-3.167 2.667-9.5 15.7-9.5 38.5s5 39.5 6 60c.76 15.581-1 30.833-1.5 36.5 2.833-1.833 10.5-4.5 18.5-4.5 10 0 181 38 433 38s421-38 431-38c8 0 15.67 2.667 18.5 4.5-.5-5.667-2.26-20.919-1.5-36.5 1-20.5 6-37.2 6-60s-6.33-35.833-9.5-38.5C1009.32 21.588 858.959 38 711 38 562.325 38 411.399 21.694 264.5 0"/></svg>